<?xml version="1.0"?>
<svg xmlns="http://www.w3.org/2000/svg" height="512px" viewBox="0 0 64 64" width="512px" class=""><g><g id="Check_List" data-name="Check List"><path d="m24 25h8a1 1 0 0 0 1-1v-8a1 1 0 0 0 -1-1h-8a1 1 0 0 0 -1 1v8a1 1 0 0 0 1 1zm1-8h6v6h-6z" data-original="#000000" class="active-path" data-old_color="#ffffff" fill="#ffffff"/><path d="m32 37a1 1 0 0 0 1-1v-8a1 1 0 0 0 -1-1h-8a1 1 0 0 0 -1 1v8a1 1 0 0 0 1 1zm-7-8h6v6h-6z" data-original="#000000" class="active-path" data-old_color="#ffffff" fill="#ffffff"/><path d="m35 15h12v2h-12z" data-original="#000000" class="active-path" data-old_color="#ffffff" fill="#ffffff"/><path d="m35 19h12v2h-12z" data-original="#000000" class="active-path" data-old_color="#ffffff" fill="#ffffff"/><path d="m35 27h8v2h-8z" data-original="#000000" class="active-path" data-old_color="#ffffff" fill="#ffffff"/><path d="m35 31h6v2h-6z" data-original="#000000" class="active-path" data-old_color="#ffffff" fill="#ffffff"/><path d="m60.678 20.322a3.073 3.073 0 0 0 -4.242 0l-.436.436v-11.758a3 3 0 0 0 -3-3h-8.22l-.431-1.728a3 3 0 0 0 -2.911-2.272h-12.876a3 3 0 0 0 -2.911 2.272l-.431 1.728h-8.22a3 3 0 0 0 -3 3v31h-9a3 3 0 0 0 -3 3v16a3 3 0 0 0 3 3h48a3 3 0 0 0 3-3v-28.344l1.142-1.141a1 1 0 0 0 0-1.414l3.536-3.536a3 3 0 0 0 0-4.243zm-7.072 9.9-2.828-2.828 1.414-1.415 2.829 2.829zm-41.606 11.778h2v6.586l-.293-.293a1 1 0 0 0 -1.414 0l-.293.293zm4 0h5a1 1 0 0 1 1 1v3h-6zm5-2h-2v-29h5.026a.979.979 0 0 0 .186.615 1 1 0 0 0 .788.385h20a1 1 0 0 0 .788-.385.979.979 0 0 0 .186-.615h5.026v13.343l-2.343 2.344a1 1 0 0 0 0 1.414l-19.507 19.505.017.017a.988.988 0 0 0 -.2.243l-2.828 5.657a1 1 0 0 0 1.342 1.342l5.657-2.828a.991.991 0 0 0 .242-.2l.018.017 17.602-17.612v22.758h-27v-14a3 3 0 0 0 -3-3zm11.686 9.728-1.414-1.415 18.8-18.8 1.414 1.414zm-2.554.272.866.867-1.733.867zm22.868-42a1 1 0 0 1 1 1v13.758l-1 1v-13.758a1 1 0 0 0 -1-1h-6.47l-.25-1zm-25.409-3.242a1 1 0 0 1 .971-.758h12.876a1 1 0 0 1 .971.758l1.311 5.242h-17.44zm-11.591 4.242a1 1 0 0 1 1-1h7.72l-.25 1h-6.47a1 1 0 0 0 -1 1v30h-1zm-11 33h5v4h-6v-3a1 1 0 0 1 1-1zm0 18a1 1 0 0 1 -1-1v-11h6v3a1 1 0 0 0 1.707.707l1.293-1.293 1.293 1.293a1 1 0 0 0 1.707-.707v-3h6v11a1 1 0 0 1 -1 1zm48 0h-29.184a2.966 2.966 0 0 0 .184-1h28a1 1 0 0 0 1-1v-25.589a.946.946 0 0 0 1 .142v26.447a1 1 0 0 1 -1 1zm6.264-36.849-3.536 3.535-1.415-1.414 3.537-3.536a1.025 1.025 0 0 1 1.414 0 1 1 0 0 1 0 1.415z" data-original="#000000" class="active-path" data-old_color="#ffffff" fill="#ffffff"/><path d="m36 6h4v2h-4z" data-original="#000000" class="active-path" data-old_color="#ffffff" fill="#ffffff"/><path d="m30 6h4v2h-4z" data-original="#000000" class="active-path" data-old_color="#ffffff" fill="#ffffff"/></g></g> </svg>
